# xmcd CD database file
#
# Track frame offsets:
#	150
#	19125
#	60300
#
# Disc length: 895 seconds
#
# Revision: 0
# Processed by: cddbd v1.5.1PL0 Copyright (c) Steve Scherf et al.
# Submitted via: CDex 1.51
#
DISCID=1a037d03
DTITLE=S.D.K.Special - TECHNOGELION -FINAL ANGELS- 補完ＣＤ Ver 1.10
DYEAR=1900
DGENRE=未分類 (日本)
TTITLE0=Air (G線上のアリア)
TTITLE1=Kanon (パッヘルベルのカノン)
TTITLE2=データトラック
EXTD=
EXTT0=
EXTT1=
EXTT2=
PLAYORDER=
